<svg width="41" height="41" viewBox="0 0 41 41" fill="none" xmlns="http://www.w3.org/2000/svg">
<path d="M20.5 41C15.0631 41 9.84881 38.8402 6.00431 34.9957C2.15982 31.1512 0 25.9369 0 20.5C0 15.0631 2.15982 9.84881 6.00431 6.00431C9.84881 2.15982 15.0631 0 20.5 0C25.9369 0 31.1512 2.15982 34.9957 6.00431C38.8402 9.84881 41 15.0631 41 20.5C41 25.9369 38.8402 31.1512 34.9957 34.9957C31.1512 38.8402 25.9369 41 20.5 41ZM22.6704 20.1284C24.0907 19.6175 25.2851 18.6218 26.0435 17.3168C26.8018 16.0117 27.0754 14.4809 26.816 12.994C26.5567 11.5071 25.7811 10.1593 24.6257 9.18805C23.4704 8.21676 22.0094 7.68424 20.5 7.68424C18.9906 7.68424 17.5296 8.21676 16.3743 9.18805C15.2189 10.1593 14.4433 11.5071 14.184 12.994C13.9246 14.4809 14.1982 16.0117 14.9565 17.3168C15.7149 18.6218 16.9093 19.6175 18.3296 20.1284C14.0194 21.1688 10.25 25.0484 10.25 28.1875C10.25 29.1997 10.6216 30.7372 12.8125 30.7372H28.1875C30.3784 30.7372 30.75 29.1997 30.75 28.1875C30.75 25.051 26.9831 21.1663 22.6704 20.1284Z" fill="#126912"/>
</svg>
